# xmcd
#
# Track frame offsets:
#	150
#	23286
#	40650
#	52458
#	67541
#	85555
#	100056
#	118207
#	133183
#	142438
#	150582
#	162783
#	176818
#	192867
#	206301
#	218097
#	235617
#	260206
#	271328
#	285696
#	300329
#
# Disc length: 4239 seconds
#
# Revision: 8
# Processed by: cddbd v1.5.2PL0 Copyright (c) Steve Scherf et al.
# Submitted via: EasyCDDAExtractor 12.0.7.1
#
DISCID=25108d15
DTITLE=Byrds - The Byrds [Box Set] cd4
DYEAR=1990
DGENRE=Folk/Rock
TTITLE0=Chestnut Mare
TTITLE1=Just A Season
TTITLE2=Kathleen's Song
TTITLE3=Truck Stop Girl
TTITLE4=Just Like A Women
TTITLE5=Stanley's Song
TTITLE6=Glory, Glory
TTITLE7=I Trust
TTITLE8=I Wanna Grow Up To Be A Politician
TTITLE9=Green Apple Quick Step
TTITLE10=Tiffany Queen
TTITLE11=Bugler
TTITLE12=Lazy Waters
TTITLE13=Farther Along
TTITLE14=White's Lightning
TTITLE15=Turn! Turn! Turn! (To Everything There Is A Season) - 2
TTITLE16=Mr. Tambourine Man - 2
TTITLE17=He Was A Friend Of Mine - 2
TTITLE18=Paths Of Victory
TTITLE19=From A Distance
TTITLE20=Love That Never Dies
EXTD=BYRDS Boxset (1965 - 1990]\n4 CD-Set\nCD 1: We Have Ignition\nCD 2: Cruis
EXTD=ing Altitude\nCD 3: Full Throttle\nCD 4: Final Approach\nLabel: Columbia 
EXTD=/ Legacy\n46773
EXTT0=
EXTT1=
EXTT2=
EXTT3=
EXTT4=
EXTT5=
EXTT6=
EXTT7=
EXTT8=
EXTT9=
EXTT10=
EXTT11=
EXTT12=
EXTT13=
EXTT14=
EXTT15=
EXTT16=
EXTT17=
EXTT18=
EXTT19=
EXTT20=
PLAYORDER=
